<?xml version="1.0" encoding="UTF-8"?><svg xmlns="http://www.w3.org/2000/svg" xmlns:xlink="http://www.w3.org/1999/xlink" width="75" zoomAndPan="magnify" viewBox="0 0 75 74.999997" height="74.999997" preserveAspectRatio="xMidYMid meet" version="1.0"><defs><clipPath id="clip-0"><path d="M 30.074219 30.074219 L 45.074219 30.074219 L 45.074219 45.074219 L 30.074219 45.074219 Z M 30.074219 30.074219 " clip-rule="nonzero"/></clipPath></defs><rect x="-7.5" width="90" fill="rgb(100%, 100%, 100%)" y="-7.5" height="89.999996" fill-opacity="1"/><rect x="-7.5" width="90" fill="rgb(100%, 100%, 100%)" y="-7.5" height="89.999996" fill-opacity="1"/><rect x="-7.5" width="90" fill="rgb(13.729858%, 14.509583%, 14.898682%)" y="-7.5" height="89.999996" fill-opacity="1"/><path fill="rgb(81.17981%, 93.728638%, 0%)" d="M 68.65625 4.261719 C 69.980469 4.261719 71.066406 5.347656 71.066406 6.671875 L 71.066406 68.65625 C 71.066406 69.980469 69.980469 71.066406 68.65625 71.066406 L 6.671875 71.066406 C 5.347656 71.066406 4.261719 69.980469 4.261719 68.65625 L 4.261719 6.671875 C 4.261719 5.347656 5.347656 4.261719 6.671875 4.261719 L 68.65625 4.261719 M 68.65625 2.039062 L 6.671875 2.039062 C 4.121094 2.039062 2.039062 4.121094 2.039062 6.671875 L 2.039062 68.65625 C 2.039062 71.207031 4.121094 73.289062 6.671875 73.289062 L 68.65625 73.289062 C 71.207031 73.289062 73.289062 71.207031 73.289062 68.65625 L 73.289062 6.671875 C 73.289062 4.121094 71.207031 2.039062 68.65625 2.039062 Z M 68.65625 2.039062 " fill-opacity="1" fill-rule="nonzero"/><g clip-path="url(#clip-0)"><path fill="rgb(81.17981%, 93.728638%, 0%)" d="M 45.074219 37.574219 C 45.074219 38.066406 45.027344 38.554688 44.929688 39.039062 C 44.835938 39.519531 44.691406 39.988281 44.503906 40.445312 C 44.316406 40.898438 44.085938 41.332031 43.8125 41.742188 C 43.539062 42.152344 43.226562 42.53125 42.878906 42.878906 C 42.53125 43.226562 42.152344 43.539062 41.742188 43.8125 C 41.332031 44.085938 40.898438 44.316406 40.445312 44.503906 C 39.988281 44.691406 39.519531 44.835938 39.039062 44.929688 C 38.554688 45.027344 38.066406 45.074219 37.574219 45.074219 C 37.082031 45.074219 36.59375 45.027344 36.113281 44.929688 C 35.628906 44.835938 35.160156 44.691406 34.703125 44.503906 C 34.25 44.316406 33.816406 44.085938 33.410156 43.8125 C 33 43.539062 32.621094 43.226562 32.273438 42.878906 C 31.921875 42.53125 31.613281 42.152344 31.339844 41.742188 C 31.066406 41.332031 30.835938 40.898438 30.644531 40.445312 C 30.457031 39.988281 30.316406 39.519531 30.21875 39.039062 C 30.121094 38.554688 30.074219 38.066406 30.074219 37.574219 C 30.074219 37.082031 30.121094 36.59375 30.21875 36.113281 C 30.316406 35.628906 30.457031 35.160156 30.644531 34.703125 C 30.835938 34.25 31.066406 33.816406 31.339844 33.410156 C 31.613281 33 31.921875 32.621094 32.273438 32.273438 C 32.621094 31.921875 33 31.613281 33.410156 31.339844 C 33.816406 31.066406 34.25 30.835938 34.703125 30.644531 C 35.160156 30.457031 35.628906 30.316406 36.113281 30.21875 C 36.59375 30.121094 37.082031 30.074219 37.574219 30.074219 C 38.066406 30.074219 38.554688 30.121094 39.039062 30.21875 C 39.519531 30.316406 39.988281 30.457031 40.445312 30.644531 C 40.898438 30.835938 41.332031 31.066406 41.742188 31.339844 C 42.152344 31.613281 42.53125 31.921875 42.878906 32.273438 C 43.226562 32.621094 43.539062 33 43.8125 33.410156 C 44.085938 33.816406 44.316406 34.25 44.503906 34.703125 C 44.691406 35.160156 44.835938 35.628906 44.929688 36.113281 C 45.027344 36.59375 45.074219 37.082031 45.074219 37.574219 Z M 45.074219 37.574219 " fill-opacity="1" fill-rule="nonzero"/></g></svg>