<?xml version="1.0" encoding="UTF-8"?><svg xmlns="http://www.w3.org/2000/svg" xmlns:xlink="http://www.w3.org/1999/xlink" width="75" zoomAndPan="magnify" viewBox="0 0 75 74.999997" height="74.999997" preserveAspectRatio="xMidYMid meet" version="1.0"><defs><clipPath id="clip-0"><path d="M 7.5 52.648438 L 22.5 52.648438 L 22.5 67.648438 L 7.5 67.648438 Z M 7.5 52.648438 " clip-rule="nonzero"/></clipPath><clipPath id="clip-1"><path d="M 30.074219 30.074219 L 45.074219 30.074219 L 45.074219 45.074219 L 30.074219 45.074219 Z M 30.074219 30.074219 " clip-rule="nonzero"/></clipPath><clipPath id="clip-2"><path d="M 52.648438 7.5 L 67.648438 7.5 L 67.648438 22.5 L 52.648438 22.5 Z M 52.648438 7.5 " clip-rule="nonzero"/></clipPath></defs><rect x="-7.5" width="90" fill="rgb(100%, 100%, 100%)" y="-7.5" height="89.999996" fill-opacity="1"/><rect x="-7.5" width="90" fill="rgb(100%, 100%, 100%)" y="-7.5" height="89.999996" fill-opacity="1"/><rect x="-7.5" width="90" fill="rgb(13.729858%, 14.509583%, 14.898682%)" y="-7.5" height="89.999996" fill-opacity="1"/><path fill="rgb(81.17981%, 93.728638%, 0%)" d="M 68.65625 4.261719 C 69.980469 4.261719 71.066406 5.347656 71.066406 6.671875 L 71.066406 68.65625 C 71.066406 69.980469 69.980469 71.066406 68.65625 71.066406 L 6.671875 71.066406 C 5.347656 71.066406 4.261719 69.980469 4.261719 68.65625 L 4.261719 6.671875 C 4.261719 5.347656 5.347656 4.261719 6.671875 4.261719 L 68.65625 4.261719 M 68.65625 2.039062 L 6.671875 2.039062 C 4.121094 2.039062 2.039062 4.121094 2.039062 6.671875 L 2.039062 68.65625 C 2.039062 71.207031 4.121094 73.289062 6.671875 73.289062 L 68.65625 73.289062 C 71.207031 73.289062 73.289062 71.207031 73.289062 68.65625 L 73.289062 6.671875 C 73.289062 4.121094 71.207031 2.039062 68.65625 2.039062 Z M 68.65625 2.039062 " fill-opacity="1" fill-rule="nonzero"/><g clip-path="url(#clip-0)"><path fill="rgb(81.17981%, 93.728638%, 0%)" d="M 22.5 60.148438 C 22.5 60.640625 22.453125 61.128906 22.355469 61.613281 C 22.261719 62.097656 22.117188 62.566406 21.929688 63.019531 C 21.742188 63.476562 21.507812 63.90625 21.234375 64.316406 C 20.960938 64.726562 20.652344 65.105469 20.304688 65.453125 C 19.957031 65.800781 19.578125 66.113281 19.167969 66.386719 C 18.757812 66.660156 18.324219 66.890625 17.871094 67.078125 C 17.414062 67.265625 16.945312 67.410156 16.464844 67.507812 C 15.980469 67.601562 15.492188 67.648438 15 67.648438 C 14.507812 67.648438 14.019531 67.601562 13.535156 67.507812 C 13.054688 67.410156 12.585938 67.265625 12.128906 67.078125 C 11.675781 66.890625 11.242188 66.660156 10.832031 66.386719 C 10.421875 66.113281 10.042969 65.800781 9.695312 65.453125 C 9.347656 65.105469 9.039062 64.726562 8.765625 64.316406 C 8.492188 63.90625 8.257812 63.476562 8.070312 63.019531 C 7.882812 62.566406 7.738281 62.097656 7.644531 61.613281 C 7.546875 61.128906 7.5 60.640625 7.5 60.148438 C 7.5 59.65625 7.546875 59.167969 7.644531 58.6875 C 7.738281 58.203125 7.882812 57.734375 8.070312 57.28125 C 8.257812 56.824219 8.492188 56.394531 8.765625 55.984375 C 9.039062 55.574219 9.347656 55.195312 9.695312 54.847656 C 10.042969 54.5 10.421875 54.1875 10.832031 53.914062 C 11.242188 53.640625 11.675781 53.410156 12.128906 53.222656 C 12.585938 53.03125 13.054688 52.890625 13.535156 52.792969 C 14.019531 52.699219 14.507812 52.648438 15 52.648438 C 15.492188 52.648438 15.980469 52.699219 16.464844 52.792969 C 16.945312 52.890625 17.414062 53.03125 17.871094 53.222656 C 18.324219 53.410156 18.757812 53.640625 19.167969 53.914062 C 19.578125 54.1875 19.957031 54.5 20.304688 54.847656 C 20.652344 55.195312 20.960938 55.574219 21.234375 55.984375 C 21.507812 56.394531 21.742188 56.824219 21.929688 57.28125 C 22.117188 57.734375 22.261719 58.203125 22.355469 58.6875 C 22.453125 59.167969 22.5 59.65625 22.5 60.148438 Z M 22.5 60.148438 " fill-opacity="1" fill-rule="nonzero"/></g><g clip-path="url(#clip-1)"><path fill="rgb(81.17981%, 93.728638%, 0%)" d="M 45.074219 37.574219 C 45.074219 38.066406 45.027344 38.554688 44.929688 39.039062 C 44.835938 39.519531 44.691406 39.988281 44.503906 40.445312 C 44.316406 40.898438 44.085938 41.332031 43.8125 41.742188 C 43.539062 42.152344 43.226562 42.53125 42.878906 42.878906 C 42.53125 43.226562 42.152344 43.539062 41.742188 43.8125 C 41.332031 44.085938 40.898438 44.316406 40.445312 44.503906 C 39.988281 44.691406 39.519531 44.835938 39.039062 44.929688 C 38.554688 45.027344 38.066406 45.074219 37.574219 45.074219 C 37.082031 45.074219 36.59375 45.027344 36.113281 44.929688 C 35.628906 44.835938 35.160156 44.691406 34.703125 44.503906 C 34.25 44.316406 33.816406 44.085938 33.410156 43.8125 C 33 43.539062 32.621094 43.226562 32.273438 42.878906 C 31.921875 42.53125 31.613281 42.152344 31.339844 41.742188 C 31.066406 41.332031 30.835938 40.898438 30.644531 40.445312 C 30.457031 39.988281 30.316406 39.519531 30.21875 39.039062 C 30.121094 38.554688 30.074219 38.066406 30.074219 37.574219 C 30.074219 37.082031 30.121094 36.59375 30.21875 36.113281 C 30.316406 35.628906 30.457031 35.160156 30.644531 34.703125 C 30.835938 34.25 31.066406 33.816406 31.339844 33.410156 C 31.613281 33 31.921875 32.621094 32.273438 32.273438 C 32.621094 31.921875 33 31.613281 33.410156 31.339844 C 33.816406 31.066406 34.25 30.835938 34.703125 30.644531 C 35.160156 30.457031 35.628906 30.316406 36.113281 30.21875 C 36.59375 30.121094 37.082031 30.074219 37.574219 30.074219 C 38.066406 30.074219 38.554688 30.121094 39.039062 30.21875 C 39.519531 30.316406 39.988281 30.457031 40.445312 30.644531 C 40.898438 30.835938 41.332031 31.066406 41.742188 31.339844 C 42.152344 31.613281 42.53125 31.921875 42.878906 32.273438 C 43.226562 32.621094 43.539062 33 43.8125 33.410156 C 44.085938 33.816406 44.316406 34.25 44.503906 34.703125 C 44.691406 35.160156 44.835938 35.628906 44.929688 36.113281 C 45.027344 36.59375 45.074219 37.082031 45.074219 37.574219 Z M 45.074219 37.574219 " fill-opacity="1" fill-rule="nonzero"/></g><g clip-path="url(#clip-2)"><path fill="rgb(81.17981%, 93.728638%, 0%)" d="M 67.648438 15 C 67.648438 15.492188 67.601562 15.980469 67.507812 16.464844 C 67.410156 16.945312 67.265625 17.414062 67.078125 17.871094 C 66.890625 18.324219 66.660156 18.757812 66.386719 19.167969 C 66.113281 19.578125 65.800781 19.953125 65.453125 20.304688 C 65.105469 20.652344 64.726562 20.960938 64.316406 21.234375 C 63.90625 21.507812 63.476562 21.742188 63.019531 21.929688 C 62.566406 22.117188 62.097656 22.261719 61.613281 22.355469 C 61.128906 22.453125 60.640625 22.5 60.148438 22.5 C 59.65625 22.5 59.167969 22.453125 58.6875 22.355469 C 58.203125 22.261719 57.734375 22.117188 57.28125 21.929688 C 56.824219 21.742188 56.394531 21.507812 55.984375 21.234375 C 55.574219 20.960938 55.195312 20.652344 54.847656 20.304688 C 54.5 19.953125 54.1875 19.578125 53.914062 19.167969 C 53.640625 18.757812 53.410156 18.324219 53.222656 17.871094 C 53.03125 17.414062 52.890625 16.945312 52.792969 16.464844 C 52.699219 15.980469 52.648438 15.492188 52.648438 15 C 52.648438 14.507812 52.699219 14.019531 52.792969 13.535156 C 52.890625 13.054688 53.03125 12.585938 53.222656 12.128906 C 53.410156 11.675781 53.640625 11.242188 53.914062 10.832031 C 54.1875 10.421875 54.5 10.042969 54.847656 9.695312 C 55.195312 9.347656 55.574219 9.039062 55.984375 8.765625 C 56.394531 8.492188 56.824219 8.257812 57.28125 8.070312 C 57.734375 7.882812 58.203125 7.738281 58.6875 7.644531 C 59.167969 7.546875 59.65625 7.5 60.148438 7.5 C 60.640625 7.5 61.128906 7.546875 61.613281 7.644531 C 62.097656 7.738281 62.566406 7.882812 63.019531 8.070312 C 63.476562 8.257812 63.90625 8.492188 64.316406 8.765625 C 64.726562 9.039062 65.105469 9.347656 65.453125 9.695312 C 65.800781 10.042969 66.113281 10.421875 66.386719 10.832031 C 66.660156 11.242188 66.890625 11.675781 67.078125 12.128906 C 67.265625 12.585938 67.410156 13.054688 67.507812 13.535156 C 67.601562 14.019531 67.648438 14.507812 67.648438 15 Z M 67.648438 15 " fill-opacity="1" fill-rule="nonzero"/></g></svg>