<?xml version="1.0" encoding="UTF-8"?><svg xmlns="http://www.w3.org/2000/svg" xmlns:xlink="http://www.w3.org/1999/xlink" width="75" zoomAndPan="magnify" viewBox="0 0 75 74.999997" height="74.999997" preserveAspectRatio="xMidYMid meet" version="1.0"><defs><clipPath id="clip-0"><path d="M 7.5 52.648438 L 22.5 52.648438 L 22.5 67.648438 L 7.5 67.648438 Z M 7.5 52.648438 " clip-rule="nonzero"/></clipPath><clipPath id="clip-1"><path d="M 7.5 7.5 L 22.5 7.5 L 22.5 22.5 L 7.5 22.5 Z M 7.5 7.5 " clip-rule="nonzero"/></clipPath><clipPath id="clip-2"><path d="M 52.648438 52.648438 L 67.648438 52.648438 L 67.648438 67.648438 L 52.648438 67.648438 Z M 52.648438 52.648438 " clip-rule="nonzero"/></clipPath><clipPath id="clip-3"><path d="M 7.5 30.074219 L 22.5 30.074219 L 22.5 45.074219 L 7.5 45.074219 Z M 7.5 30.074219 " clip-rule="nonzero"/></clipPath><clipPath id="clip-4"><path d="M 52.648438 30.074219 L 67.648438 30.074219 L 67.648438 45.074219 L 52.648438 45.074219 Z M 52.648438 30.074219 " clip-rule="nonzero"/></clipPath><clipPath id="clip-5"><path d="M 52.648438 7.5 L 67.648438 7.5 L 67.648438 22.5 L 52.648438 22.5 Z M 52.648438 7.5 " clip-rule="nonzero"/></clipPath></defs><rect x="-7.5" width="90" fill="rgb(100%, 100%, 100%)" y="-7.5" height="89.999996" fill-opacity="1"/><rect x="-7.5" width="90" fill="rgb(100%, 100%, 100%)" y="-7.5" height="89.999996" fill-opacity="1"/><rect x="-7.5" width="90" fill="rgb(13.729858%, 14.509583%, 14.898682%)" y="-7.5" height="89.999996" fill-opacity="1"/><path fill="rgb(81.17981%, 93.728638%, 0%)" d="M 68.65625 4.261719 C 69.980469 4.261719 71.066406 5.347656 71.066406 6.671875 L 71.066406 68.65625 C 71.066406 69.980469 69.980469 71.066406 68.65625 71.066406 L 6.671875 71.066406 C 5.347656 71.066406 4.261719 69.980469 4.261719 68.65625 L 4.261719 6.671875 C 4.261719 5.347656 5.347656 4.261719 6.671875 4.261719 L 68.65625 4.261719 M 68.65625 2.039062 L 6.671875 2.039062 C 4.121094 2.039062 2.039062 4.121094 2.039062 6.671875 L 2.039062 68.65625 C 2.039062 71.207031 4.121094 73.289062 6.671875 73.289062 L 68.65625 73.289062 C 71.207031 73.289062 73.289062 71.207031 73.289062 68.65625 L 73.289062 6.671875 C 73.289062 4.121094 71.207031 2.039062 68.65625 2.039062 Z M 68.65625 2.039062 " fill-opacity="1" fill-rule="nonzero"/><g clip-path="url(#clip-0)"><path fill="rgb(81.17981%, 93.728638%, 0%)" d="M 22.5 60.148438 C 22.5 60.640625 22.453125 61.128906 22.355469 61.613281 C 22.261719 62.097656 22.117188 62.566406 21.929688 63.019531 C 21.742188 63.476562 21.507812 63.90625 21.234375 64.316406 C 20.960938 64.726562 20.652344 65.105469 20.304688 65.453125 C 19.957031 65.800781 19.578125 66.113281 19.167969 66.386719 C 18.757812 66.660156 18.324219 66.890625 17.871094 67.078125 C 17.414062 67.265625 16.945312 67.410156 16.464844 67.507812 C 15.980469 67.601562 15.492188 67.648438 15 67.648438 C 14.507812 67.648438 14.019531 67.601562 13.535156 67.507812 C 13.054688 67.410156 12.585938 67.265625 12.128906 67.078125 C 11.675781 66.890625 11.242188 66.660156 10.832031 66.386719 C 10.421875 66.113281 10.042969 65.800781 9.695312 65.453125 C 9.347656 65.105469 9.039062 64.726562 8.765625 64.316406 C 8.492188 63.90625 8.257812 63.476562 8.070312 63.019531 C 7.882812 62.566406 7.738281 62.097656 7.644531 61.613281 C 7.546875 61.128906 7.5 60.640625 7.5 60.148438 C 7.5 59.65625 7.546875 59.167969 7.644531 58.6875 C 7.738281 58.203125 7.882812 57.734375 8.070312 57.28125 C 8.257812 56.824219 8.492188 56.394531 8.765625 55.984375 C 9.039062 55.574219 9.347656 55.195312 9.695312 54.847656 C 10.042969 54.5 10.421875 54.1875 10.832031 53.914062 C 11.242188 53.640625 11.675781 53.410156 12.128906 53.222656 C 12.585938 53.03125 13.054688 52.890625 13.535156 52.792969 C 14.019531 52.699219 14.507812 52.648438 15 52.648438 C 15.492188 52.648438 15.980469 52.699219 16.464844 52.792969 C 16.945312 52.890625 17.414062 53.03125 17.871094 53.222656 C 18.324219 53.410156 18.757812 53.640625 19.167969 53.914062 C 19.578125 54.1875 19.957031 54.5 20.304688 54.847656 C 20.652344 55.195312 20.960938 55.574219 21.234375 55.984375 C 21.507812 56.394531 21.742188 56.824219 21.929688 57.28125 C 22.117188 57.734375 22.261719 58.203125 22.355469 58.6875 C 22.453125 59.167969 22.5 59.65625 22.5 60.148438 Z M 22.5 60.148438 " fill-opacity="1" fill-rule="nonzero"/></g><g clip-path="url(#clip-1)"><path fill="rgb(81.17981%, 93.728638%, 0%)" d="M 22.5 15 C 22.5 15.492188 22.453125 15.980469 22.355469 16.464844 C 22.261719 16.945312 22.117188 17.414062 21.929688 17.871094 C 21.742188 18.324219 21.507812 18.757812 21.234375 19.167969 C 20.960938 19.578125 20.652344 19.953125 20.304688 20.304688 C 19.957031 20.652344 19.578125 20.960938 19.167969 21.234375 C 18.757812 21.507812 18.324219 21.742188 17.871094 21.929688 C 17.414062 22.117188 16.945312 22.261719 16.464844 22.355469 C 15.980469 22.453125 15.492188 22.5 15 22.5 C 14.507812 22.5 14.019531 22.453125 13.535156 22.355469 C 13.054688 22.261719 12.585938 22.117188 12.128906 21.929688 C 11.675781 21.742188 11.242188 21.507812 10.832031 21.234375 C 10.421875 20.960938 10.042969 20.652344 9.695312 20.304688 C 9.347656 19.953125 9.039062 19.578125 8.765625 19.167969 C 8.492188 18.757812 8.257812 18.324219 8.070312 17.871094 C 7.882812 17.414062 7.738281 16.945312 7.644531 16.464844 C 7.546875 15.980469 7.5 15.492188 7.5 15 C 7.5 14.507812 7.546875 14.019531 7.644531 13.535156 C 7.738281 13.054688 7.882812 12.585938 8.070312 12.128906 C 8.257812 11.675781 8.492188 11.242188 8.765625 10.832031 C 9.039062 10.421875 9.347656 10.042969 9.695312 9.695312 C 10.042969 9.347656 10.421875 9.039062 10.832031 8.765625 C 11.242188 8.492188 11.675781 8.257812 12.128906 8.070312 C 12.585938 7.882812 13.054688 7.738281 13.535156 7.644531 C 14.019531 7.546875 14.507812 7.5 15 7.5 C 15.492188 7.5 15.980469 7.546875 16.464844 7.644531 C 16.945312 7.738281 17.414062 7.882812 17.871094 8.070312 C 18.324219 8.257812 18.757812 8.492188 19.167969 8.765625 C 19.578125 9.039062 19.957031 9.347656 20.304688 9.695312 C 20.652344 10.042969 20.960938 10.421875 21.234375 10.832031 C 21.507812 11.242188 21.742188 11.675781 21.929688 12.128906 C 22.117188 12.585938 22.261719 13.054688 22.355469 13.535156 C 22.453125 14.019531 22.5 14.507812 22.5 15 Z M 22.5 15 " fill-opacity="1" fill-rule="nonzero"/></g><g clip-path="url(#clip-2)"><path fill="rgb(81.17981%, 93.728638%, 0%)" d="M 67.648438 60.148438 C 67.648438 60.640625 67.601562 61.128906 67.507812 61.613281 C 67.410156 62.097656 67.265625 62.566406 67.078125 63.019531 C 66.890625 63.476562 66.660156 63.90625 66.386719 64.316406 C 66.113281 64.726562 65.800781 65.105469 65.453125 65.453125 C 65.105469 65.800781 64.726562 66.113281 64.316406 66.386719 C 63.90625 66.660156 63.476562 66.890625 63.019531 67.078125 C 62.566406 67.265625 62.097656 67.410156 61.613281 67.507812 C 61.128906 67.601562 60.640625 67.648438 60.148438 67.648438 C 59.65625 67.648438 59.167969 67.601562 58.6875 67.507812 C 58.203125 67.410156 57.734375 67.265625 57.28125 67.078125 C 56.824219 66.890625 56.394531 66.660156 55.984375 66.386719 C 55.574219 66.113281 55.195312 65.800781 54.847656 65.453125 C 54.5 65.105469 54.1875 64.726562 53.914062 64.316406 C 53.640625 63.90625 53.410156 63.476562 53.222656 63.019531 C 53.03125 62.566406 52.890625 62.097656 52.792969 61.613281 C 52.699219 61.128906 52.648438 60.640625 52.648438 60.148438 C 52.648438 59.65625 52.699219 59.167969 52.792969 58.6875 C 52.890625 58.203125 53.03125 57.734375 53.222656 57.28125 C 53.410156 56.824219 53.640625 56.394531 53.914062 55.984375 C 54.1875 55.574219 54.5 55.195312 54.847656 54.847656 C 55.195312 54.5 55.574219 54.1875 55.984375 53.914062 C 56.394531 53.640625 56.824219 53.410156 57.28125 53.222656 C 57.734375 53.03125 58.203125 52.890625 58.6875 52.792969 C 59.167969 52.699219 59.65625 52.648438 60.148438 52.648438 C 60.640625 52.648438 61.128906 52.699219 61.613281 52.792969 C 62.097656 52.890625 62.566406 53.03125 63.019531 53.222656 C 63.476562 53.410156 63.90625 53.640625 64.316406 53.914062 C 64.726562 54.1875 65.105469 54.5 65.453125 54.847656 C 65.800781 55.195312 66.113281 55.574219 66.386719 55.984375 C 66.660156 56.394531 66.890625 56.824219 67.078125 57.28125 C 67.265625 57.734375 67.410156 58.203125 67.507812 58.6875 C 67.601562 59.167969 67.648438 59.65625 67.648438 60.148438 Z M 67.648438 60.148438 " fill-opacity="1" fill-rule="nonzero"/></g><g clip-path="url(#clip-3)"><path fill="rgb(81.17981%, 93.728638%, 0%)" d="M 22.5 37.574219 C 22.5 38.066406 22.453125 38.554688 22.355469 39.039062 C 22.261719 39.519531 22.117188 39.988281 21.929688 40.445312 C 21.742188 40.898438 21.507812 41.332031 21.234375 41.742188 C 20.960938 42.152344 20.652344 42.53125 20.304688 42.878906 C 19.957031 43.226562 19.578125 43.539062 19.167969 43.8125 C 18.757812 44.085938 18.324219 44.316406 17.871094 44.503906 C 17.414062 44.691406 16.945312 44.835938 16.464844 44.929688 C 15.980469 45.027344 15.492188 45.074219 15 45.074219 C 14.507812 45.074219 14.019531 45.027344 13.535156 44.929688 C 13.054688 44.835938 12.585938 44.691406 12.128906 44.503906 C 11.675781 44.316406 11.242188 44.085938 10.832031 43.8125 C 10.421875 43.539062 10.042969 43.226562 9.695312 42.878906 C 9.347656 42.53125 9.039062 42.152344 8.765625 41.742188 C 8.492188 41.332031 8.257812 40.898438 8.070312 40.445312 C 7.882812 39.988281 7.738281 39.519531 7.644531 39.039062 C 7.546875 38.554688 7.5 38.066406 7.5 37.574219 C 7.5 37.082031 7.546875 36.59375 7.644531 36.113281 C 7.738281 35.628906 7.882812 35.160156 8.070312 34.703125 C 8.257812 34.25 8.492188 33.816406 8.765625 33.410156 C 9.039062 33 9.347656 32.621094 9.695312 32.273438 C 10.042969 31.921875 10.421875 31.613281 10.832031 31.339844 C 11.242188 31.066406 11.675781 30.835938 12.128906 30.644531 C 12.585938 30.457031 13.054688 30.316406 13.535156 30.21875 C 14.019531 30.121094 14.507812 30.074219 15 30.074219 C 15.492188 30.074219 15.980469 30.121094 16.464844 30.21875 C 16.945312 30.316406 17.414062 30.457031 17.871094 30.644531 C 18.324219 30.835938 18.757812 31.066406 19.167969 31.339844 C 19.578125 31.613281 19.957031 31.921875 20.304688 32.273438 C 20.652344 32.621094 20.960938 33 21.234375 33.410156 C 21.507812 33.816406 21.742188 34.25 21.929688 34.703125 C 22.117188 35.160156 22.261719 35.628906 22.355469 36.113281 C 22.453125 36.59375 22.5 37.082031 22.5 37.574219 Z M 22.5 37.574219 " fill-opacity="1" fill-rule="nonzero"/></g><g clip-path="url(#clip-4)"><path fill="rgb(81.17981%, 93.728638%, 0%)" d="M 67.648438 37.574219 C 67.648438 38.066406 67.601562 38.554688 67.507812 39.039062 C 67.410156 39.519531 67.265625 39.988281 67.078125 40.445312 C 66.890625 40.898438 66.660156 41.332031 66.386719 41.742188 C 66.113281 42.152344 65.800781 42.53125 65.453125 42.878906 C 65.105469 43.226562 64.726562 43.539062 64.316406 43.8125 C 63.90625 44.085938 63.476562 44.316406 63.019531 44.503906 C 62.566406 44.691406 62.097656 44.835938 61.613281 44.929688 C 61.128906 45.027344 60.640625 45.074219 60.148438 45.074219 C 59.65625 45.074219 59.167969 45.027344 58.6875 44.929688 C 58.203125 44.835938 57.734375 44.691406 57.28125 44.503906 C 56.824219 44.316406 56.394531 44.085938 55.984375 43.8125 C 55.574219 43.539062 55.195312 43.226562 54.847656 42.878906 C 54.5 42.53125 54.1875 42.152344 53.914062 41.742188 C 53.640625 41.332031 53.410156 40.898438 53.222656 40.445312 C 53.03125 39.988281 52.890625 39.519531 52.792969 39.039062 C 52.699219 38.554688 52.648438 38.066406 52.648438 37.574219 C 52.648438 37.082031 52.699219 36.59375 52.792969 36.113281 C 52.890625 35.628906 53.03125 35.160156 53.222656 34.703125 C 53.410156 34.25 53.640625 33.816406 53.914062 33.410156 C 54.1875 33 54.5 32.621094 54.847656 32.273438 C 55.195312 31.921875 55.574219 31.613281 55.984375 31.339844 C 56.394531 31.066406 56.824219 30.835938 57.28125 30.644531 C 57.734375 30.457031 58.203125 30.316406 58.6875 30.21875 C 59.167969 30.121094 59.65625 30.074219 60.148438 30.074219 C 60.640625 30.074219 61.128906 30.121094 61.613281 30.21875 C 62.097656 30.316406 62.566406 30.457031 63.019531 30.644531 C 63.476562 30.835938 63.90625 31.066406 64.316406 31.339844 C 64.726562 31.613281 65.105469 31.921875 65.453125 32.273438 C 65.800781 32.621094 66.113281 33 66.386719 33.410156 C 66.660156 33.816406 66.890625 34.25 67.078125 34.703125 C 67.265625 35.160156 67.410156 35.628906 67.507812 36.113281 C 67.601562 36.59375 67.648438 37.082031 67.648438 37.574219 Z M 67.648438 37.574219 " fill-opacity="1" fill-rule="nonzero"/></g><g clip-path="url(#clip-5)"><path fill="rgb(81.17981%, 93.728638%, 0%)" d="M 67.648438 15 C 67.648438 15.492188 67.601562 15.980469 67.507812 16.464844 C 67.410156 16.945312 67.265625 17.414062 67.078125 17.871094 C 66.890625 18.324219 66.660156 18.757812 66.386719 19.167969 C 66.113281 19.578125 65.800781 19.953125 65.453125 20.304688 C 65.105469 20.652344 64.726562 20.960938 64.316406 21.234375 C 63.90625 21.507812 63.476562 21.742188 63.019531 21.929688 C 62.566406 22.117188 62.097656 22.261719 61.613281 22.355469 C 61.128906 22.453125 60.640625 22.5 60.148438 22.5 C 59.65625 22.5 59.167969 22.453125 58.6875 22.355469 C 58.203125 22.261719 57.734375 22.117188 57.28125 21.929688 C 56.824219 21.742188 56.394531 21.507812 55.984375 21.234375 C 55.574219 20.960938 55.195312 20.652344 54.847656 20.304688 C 54.5 19.953125 54.1875 19.578125 53.914062 19.167969 C 53.640625 18.757812 53.410156 18.324219 53.222656 17.871094 C 53.03125 17.414062 52.890625 16.945312 52.792969 16.464844 C 52.699219 15.980469 52.648438 15.492188 52.648438 15 C 52.648438 14.507812 52.699219 14.019531 52.792969 13.535156 C 52.890625 13.054688 53.03125 12.585938 53.222656 12.128906 C 53.410156 11.675781 53.640625 11.242188 53.914062 10.832031 C 54.1875 10.421875 54.5 10.042969 54.847656 9.695312 C 55.195312 9.347656 55.574219 9.039062 55.984375 8.765625 C 56.394531 8.492188 56.824219 8.257812 57.28125 8.070312 C 57.734375 7.882812 58.203125 7.738281 58.6875 7.644531 C 59.167969 7.546875 59.65625 7.5 60.148438 7.5 C 60.640625 7.5 61.128906 7.546875 61.613281 7.644531 C 62.097656 7.738281 62.566406 7.882812 63.019531 8.070312 C 63.476562 8.257812 63.90625 8.492188 64.316406 8.765625 C 64.726562 9.039062 65.105469 9.347656 65.453125 9.695312 C 65.800781 10.042969 66.113281 10.421875 66.386719 10.832031 C 66.660156 11.242188 66.890625 11.675781 67.078125 12.128906 C 67.265625 12.585938 67.410156 13.054688 67.507812 13.535156 C 67.601562 14.019531 67.648438 14.507812 67.648438 15 Z M 67.648438 15 " fill-opacity="1" fill-rule="nonzero"/></g></svg>